<svg width="502" height="130" viewBox="0 0 502 130" fill="none" xmlns="http://www.w3.org/2000/svg">
<g filter="url(#filter0_d_1000_261)">
<path d="M40.4062 87.7891V34.1953C40.4062 33.388 40.8099 32.9844 41.6172 32.9844H60.4844C64.5469 32.9844 68.0755 34.5208 71.0703 37.5938C74.0911 40.6406 75.6016 44.2344 75.6016 48.375C75.6016 50.3542 75.2109 52.2812 74.4297 54.1562C73.6745 56.0052 72.6328 57.6198 71.3047 59C70.6797 59.625 70.7057 60.1589 71.3828 60.6016C73.6224 61.9557 75.4062 63.8047 76.7344 66.1484C78.0625 68.4661 78.7266 70.9661 78.7266 73.6484C78.7266 77.8151 77.2031 81.4219 74.1562 84.4688C71.1354 87.4896 67.5417 89 63.375 89H50.3281C49.5208 89 49.1172 88.5964 49.1172 87.7891V76.9297C49.1172 76.1224 49.5208 75.7188 50.3281 75.7188H63.375C63.9479 75.7188 64.4297 75.5234 64.8203 75.1328C65.237 74.7422 65.4453 74.2474 65.4453 73.6484C65.4453 73.0755 65.224 72.5677 64.7812 72.125C64.3646 71.6823 63.8958 71.4609 63.375 71.4609H50.3281C49.5208 71.4609 49.1172 71.0703 49.1172 70.2891V51.6562C49.1172 50.849 49.5208 50.4453 50.3281 50.4453H60.3281C60.901 50.4453 61.3828 50.25 61.7734 49.8594C62.1901 49.4427 62.3984 48.9479 62.3984 48.375C62.3984 47.776 62.1901 47.2682 61.7734 46.8516C61.3568 46.4089 60.875 46.1875 60.3281 46.1875H50.3281C49.5208 46.1875 49.1172 45.7969 49.1172 45.0156V42.75C49.1172 41.9688 49.5208 41.5781 50.3281 41.5781H60.3281C62.0729 41.5781 63.6094 42.2682 64.9375 43.6484C66.2917 45.0286 66.9688 46.6042 66.9688 48.375C66.9688 50.1458 66.2917 51.6953 64.9375 53.0234C63.6094 54.3516 62.0729 55.0156 60.3281 55.0156H54.8984C54.0911 55.0156 53.6875 55.4062 53.6875 56.1875V65.7188C53.6875 66.526 54.0911 66.9297 54.8984 66.9297H63.375C65.1198 66.9297 66.6562 67.6068 67.9844 68.9609C69.3385 70.3151 70.0156 71.8776 70.0156 73.6484C70.0156 75.4193 69.3385 76.9818 67.9844 78.3359C66.6562 79.6901 65.1198 80.3672 63.375 80.3672H54.8984C54.0911 80.3672 53.6875 80.7708 53.6875 81.5781V83.1406C53.6875 83.9479 54.0911 84.3516 54.8984 84.3516H63.375C66.3698 84.3516 68.8698 83.3099 70.875 81.2266C73.0104 79.1693 74.0781 76.6432 74.0781 73.6484C74.0781 70.6276 73.0104 68.0885 70.875 66.0312C68.8438 64 65.862 62.9844 61.9297 62.9844H60.9922C60.1849 62.9844 59.7812 62.5938 59.7812 61.8125V59.3906C59.7812 58.6094 60.1198 58.2188 60.7969 58.2188H61.8516C63.0234 58.2188 64.0521 58.0755 64.9375 57.7891C65.8229 57.5026 66.3828 57.2552 66.6172 57.0469C66.8776 56.8385 67.2943 56.474 67.8672 55.9531C70.0026 53.8177 71.0703 51.2917 71.0703 48.375C71.0703 45.4323 70.0026 42.8932 67.8672 40.7578C65.862 38.6745 63.349 37.6328 60.3281 37.6328H46.2656C45.4583 37.6328 45.0547 38.0365 45.0547 38.8438V87.7891C45.0547 88.5964 44.651 89 43.8438 89H41.6172C40.8099 89 40.4062 88.5964 40.4062 87.7891ZM81.2656 87.7891V76.6953C81.2656 76.3568 81.3698 76.0703 81.5781 75.8359C81.8125 75.6016 82.112 75.4844 82.4766 75.4844H88.375C88.7135 75.4844 89 75.3672 89.2344 75.1328C89.4688 74.8984 89.5859 74.612 89.5859 74.2734V42.9062C89.5859 42.5677 89.6901 42.2943 89.8984 42.0859C90.1328 41.8516 90.4323 41.7344 90.7969 41.7344H105.68C106.044 41.7344 106.331 41.6172 106.539 41.3828C106.773 41.1484 106.891 40.862 106.891 40.5234V38.7656C106.891 38.401 106.773 38.1146 106.539 37.9062C106.331 37.6719 106.044 37.5547 105.68 37.5547H87.4375C87.099 37.5547 86.8125 37.6719 86.5781 37.9062C86.3438 38.1146 86.2266 38.401 86.2266 38.7656V40.5234C86.2266 41.3307 86.3828 41.7344 86.6953 41.7344C86.8255 41.7344 86.9427 41.8516 87.0469 42.0859C87.151 42.2943 87.2031 42.5677 87.2031 42.9062V45.3281C87.2031 45.6927 87.0859 45.9922 86.8516 46.2266C86.6432 46.4349 86.3568 46.5391 85.9922 46.5391H82.8672C82.5026 46.5391 82.2031 46.4349 81.9688 46.2266C81.7604 45.9922 81.6562 45.6927 81.6562 45.3281V34.1953C81.6562 33.8568 81.7604 33.5703 81.9688 33.3359C82.2031 33.1016 82.5026 32.9844 82.8672 32.9844H110.25C110.589 32.9844 110.862 33.1016 111.07 33.3359C111.305 33.5443 111.422 33.8307 111.422 34.1953V45.3281C111.422 45.6927 111.305 45.9922 111.07 46.2266C110.862 46.4349 110.589 46.5391 110.25 46.5391H95.3672C95.0026 46.5391 94.7031 46.6562 94.4688 46.8906C94.2604 47.099 94.1562 47.3724 94.1562 47.7109V79.0781C94.1562 79.4427 94.0391 79.7422 93.8047 79.9766C93.5964 80.1849 93.3099 80.2891 92.9453 80.2891H87.0469C86.6823 80.2891 86.3828 80.4062 86.1484 80.6406C85.9401 80.849 85.8359 81.1224 85.8359 81.4609V83.2578C85.8359 83.5964 85.9401 83.8828 86.1484 84.1172C86.3828 84.3255 86.6823 84.4297 87.0469 84.4297H106.07C106.435 84.4297 106.721 84.3255 106.93 84.1172C107.164 83.8828 107.281 83.5964 107.281 83.2578V81.4609C107.281 81.1224 107.164 80.849 106.93 80.6406C106.721 80.4062 106.435 80.2891 106.07 80.2891H100.172C99.8333 80.2891 99.5469 80.1849 99.3125 79.9766C99.0781 79.7422 98.9609 79.4427 98.9609 79.0781V50.1328C98.9609 49.7943 99.0781 49.5078 99.3125 49.2734C99.5469 49.0391 99.8333 48.9219 100.172 48.9219H102.32C102.685 48.9219 102.971 49.0391 103.18 49.2734C103.414 49.5078 103.531 49.7943 103.531 50.1328V74.2734C103.531 74.638 103.635 74.9375 103.844 75.1719C104.078 75.3802 104.365 75.4844 104.703 75.4844H110.641C110.979 75.4844 111.266 75.6016 111.5 75.8359C111.734 76.0703 111.852 76.3568 111.852 76.6953V87.7891C111.852 88.1276 111.734 88.4141 111.5 88.6484C111.266 88.8828 110.979 89 110.641 89H82.4766C82.112 89 81.8125 88.8828 81.5781 88.6484C81.3698 88.4141 81.2656 88.1276 81.2656 87.7891ZM115.797 87.7891V34.1953C115.797 33.388 116.201 32.9844 117.008 32.9844H128.453C129.26 32.9844 129.664 33.388 129.664 34.1953V50.6797C129.664 51.2005 129.521 51.7083 129.234 52.2031L126.461 57.3203C126.279 57.6589 126.07 57.8802 125.836 57.9844C125.628 58.0885 125.432 58.0495 125.25 57.8672C125.094 57.6849 125.016 57.3984 125.016 57.0078V38.8438C125.016 38.0365 124.612 37.6328 123.805 37.6328H121.656C120.849 37.6328 120.445 38.0365 120.445 38.8438V83.1406C120.445 83.9479 120.849 84.3516 121.656 84.3516H123.805C124.612 84.3516 125.016 83.9479 125.016 83.1406V65.5625C125.016 64.9896 125.146 64.4818 125.406 64.0391L141.812 33.8828C142.099 33.2839 142.581 32.9844 143.258 32.9844H155.172C155.615 32.9844 155.914 33.1146 156.07 33.375C156.122 33.4792 156.161 33.5964 156.188 33.7266C156.188 33.9349 156.109 34.1693 155.953 34.4297L137.32 68.8438C137.008 69.3906 137.008 69.9245 137.32 70.4453L144.352 83.4922C144.638 84.0651 145.12 84.3516 145.797 84.3516H147.555C148.023 84.3516 148.336 84.2214 148.492 83.9609C148.648 83.7005 148.609 83.349 148.375 82.9062L140.758 68.9219C140.445 68.375 140.445 67.8411 140.758 67.3203L142.047 64.9375C142.281 64.4948 142.555 64.2734 142.867 64.2734C143.18 64.2734 143.44 64.4948 143.648 64.9375L155.953 87.5547C156.109 87.8411 156.188 88.0755 156.188 88.2578C156.161 88.388 156.122 88.5052 156.07 88.6094C155.914 88.8698 155.615 89 155.172 89H143.102C142.424 89 141.943 88.7005 141.656 88.1016L132.203 70.4453C131.891 69.9245 131.891 69.3906 132.203 68.8438L148.375 39.0781C148.609 38.6354 148.648 38.2839 148.492 38.0234C148.336 37.763 148.023 37.6328 147.555 37.6328H145.797C145.146 37.6328 144.664 37.9323 144.352 38.5312L130.055 65.0156C129.794 65.4844 129.664 65.9922 129.664 66.5391V87.7891C129.664 88.5964 129.26 89 128.453 89H117.008C116.201 89 115.797 88.5964 115.797 87.7891ZM157.828 87.7891V70.5234C157.828 69.7161 158.232 69.3125 159.039 69.3125H161.188C161.995 69.3125 162.398 69.7161 162.398 70.5234V83.2578C162.398 84.0391 162.789 84.4297 163.57 84.4297H183.844C184.625 84.4297 185.016 84.0391 185.016 83.2578V81.2266C185.016 80.4453 184.625 80.0547 183.844 80.0547H167.75C166.943 80.0547 166.539 79.651 166.539 78.8438V68.1016C166.539 67.3203 166.135 66.9297 165.328 66.9297H159.039C158.232 66.9297 157.828 66.526 157.828 65.7188V34.1953C157.828 33.388 158.232 32.9844 159.039 32.9844H188.375C189.182 32.9844 189.586 33.388 189.586 34.1953V45.4844C189.586 46.2917 189.182 46.6953 188.375 46.6953H172.32C171.513 46.6953 171.109 47.0859 171.109 47.8672V52.5938C171.109 53.401 171.513 53.8047 172.32 53.8047H183.844C184.625 53.8047 185.016 54.2083 185.016 55.0156V65.7188C185.016 66.526 184.625 66.9297 183.844 66.9297H174.703C173.896 66.9297 173.492 66.526 173.492 65.7188V63.5703C173.492 62.763 173.896 62.3594 174.703 62.3594H179.273C180.055 62.3594 180.445 61.9557 180.445 61.1484V59.5469C180.445 58.7656 180.055 58.375 179.273 58.375H167.75C166.943 58.375 166.539 57.9714 166.539 57.1641V43.0625C166.539 42.2812 166.943 41.8906 167.75 41.8906H183.844C184.625 41.8906 185.016 41.487 185.016 40.6797V38.7656C185.016 37.9583 184.625 37.5547 183.844 37.5547H163.57C162.789 37.5547 162.398 37.9583 162.398 38.7656V61.1484C162.398 61.9557 162.789 62.3594 163.57 62.3594H169.898C170.706 62.3594 171.109 62.763 171.109 63.5703V74.0391C171.109 74.8464 171.513 75.25 172.32 75.25H188.375C189.182 75.25 189.586 75.6406 189.586 76.4219V87.7891C189.586 88.5964 189.182 89 188.375 89H159.039C158.232 89 157.828 88.5964 157.828 87.7891ZM217.047 87.7891V34.1953C217.047 33.388 217.451 32.9844 218.258 32.9844H237.125C241.188 32.9844 244.716 34.5208 247.711 37.5938C250.732 40.6406 252.242 44.2344 252.242 48.375C252.242 50.3542 251.852 52.2812 251.07 54.1562C250.315 56.0052 249.273 57.6198 247.945 59C247.32 59.625 247.346 60.1589 248.023 60.6016C250.263 61.9557 252.047 63.8047 253.375 66.1484C254.703 68.4661 255.367 70.9661 255.367 73.6484C255.367 77.8151 253.844 81.4219 250.797 84.4688C247.776 87.4896 244.182 89 240.016 89H226.969C226.161 89 225.758 88.5964 225.758 87.7891V76.9297C225.758 76.1224 226.161 75.7188 226.969 75.7188H240.016C240.589 75.7188 241.07 75.5234 241.461 75.1328C241.878 74.7422 242.086 74.2474 242.086 73.6484C242.086 73.0755 241.865 72.5677 241.422 72.125C241.005 71.6823 240.536 71.4609 240.016 71.4609H226.969C226.161 71.4609 225.758 71.0703 225.758 70.2891V51.6562C225.758 50.849 226.161 50.4453 226.969 50.4453H236.969C237.542 50.4453 238.023 50.25 238.414 49.8594C238.831 49.4427 239.039 48.9479 239.039 48.375C239.039 47.776 238.831 47.2682 238.414 46.8516C237.997 46.4089 237.516 46.1875 236.969 46.1875H226.969C226.161 46.1875 225.758 45.7969 225.758 45.0156V42.75C225.758 41.9688 226.161 41.5781 226.969 41.5781H236.969C238.714 41.5781 240.25 42.2682 241.578 43.6484C242.932 45.0286 243.609 46.6042 243.609 48.375C243.609 50.1458 242.932 51.6953 241.578 53.0234C240.25 54.3516 238.714 55.0156 236.969 55.0156H231.539C230.732 55.0156 230.328 55.4062 230.328 56.1875V65.7188C230.328 66.526 230.732 66.9297 231.539 66.9297H240.016C241.76 66.9297 243.297 67.6068 244.625 68.9609C245.979 70.3151 246.656 71.8776 246.656 73.6484C246.656 75.4193 245.979 76.9818 244.625 78.3359C243.297 79.6901 241.76 80.3672 240.016 80.3672H231.539C230.732 80.3672 230.328 80.7708 230.328 81.5781V83.1406C230.328 83.9479 230.732 84.3516 231.539 84.3516H240.016C243.01 84.3516 245.51 83.3099 247.516 81.2266C249.651 79.1693 250.719 76.6432 250.719 73.6484C250.719 70.6276 249.651 68.0885 247.516 66.0312C245.484 64 242.503 62.9844 238.57 62.9844H237.633C236.826 62.9844 236.422 62.5938 236.422 61.8125V59.3906C236.422 58.6094 236.76 58.2188 237.438 58.2188H238.492C239.664 58.2188 240.693 58.0755 241.578 57.7891C242.464 57.5026 243.023 57.2552 243.258 57.0469C243.518 56.8385 243.935 56.474 244.508 55.9531C246.643 53.8177 247.711 51.2917 247.711 48.375C247.711 45.4323 246.643 42.8932 244.508 40.7578C242.503 38.6745 239.99 37.6328 236.969 37.6328H222.906C222.099 37.6328 221.695 38.0365 221.695 38.8438V87.7891C221.695 88.5964 221.292 89 220.484 89H218.258C217.451 89 217.047 88.5964 217.047 87.7891ZM255.875 87.6328L273.492 33.9609C273.727 33.3099 274.182 32.9844 274.859 32.9844H277.086C277.529 32.9844 277.841 33.1146 278.023 33.375C278.206 33.6354 278.219 33.9609 278.062 34.3516L262.125 82.9844C261.969 83.375 261.982 83.7005 262.164 83.9609C262.346 84.2214 262.659 84.3516 263.102 84.3516H264.703C265.38 84.3516 265.836 84.0391 266.07 83.4141L282.281 33.9609C282.516 33.3099 282.971 32.9844 283.648 32.9844H286.305C286.982 32.9844 287.438 33.3099 287.672 33.9609L305.328 87.6328C305.406 87.8151 305.445 87.9844 305.445 88.1406C305.445 88.3229 305.393 88.4792 305.289 88.6094C305.133 88.8698 304.833 89 304.391 89H292.867C292.19 89 291.734 88.6745 291.5 88.0234L287.555 75.9531C287.32 75.3281 286.878 75.0156 286.227 75.0156H277.32C276.878 75.0156 276.565 74.8854 276.383 74.625C276.201 74.3646 276.174 74.0391 276.305 73.6484L279.664 63.2578C279.898 62.6068 280.354 62.2812 281.031 62.2812H281.656C282.099 62.2812 282.411 62.151 282.594 61.8906C282.776 61.6302 282.789 61.3047 282.633 60.9141L281.734 58.375C281.578 57.8542 281.578 57.3203 281.734 56.7734L283.102 52.5938C283.206 52.2292 283.349 51.9818 283.531 51.8516C283.74 51.6953 283.935 51.6953 284.117 51.8516C284.326 51.9818 284.495 52.2292 284.625 52.5938L288.844 65.5625C289 65.9531 288.987 66.2786 288.805 66.5391C288.648 66.7995 288.349 66.9297 287.906 66.9297H284.391C283.714 66.9297 283.258 67.2422 283.023 67.8672L282.633 69C282.477 69.3906 282.477 69.7161 282.633 69.9766C282.815 70.237 283.128 70.3672 283.57 70.3672H289.508C290.159 70.3672 290.602 70.6797 290.836 71.3047L294.781 83.4141C295.016 84.0391 295.471 84.3516 296.148 84.3516H298.141C298.583 84.3516 298.883 84.2214 299.039 83.9609C299.221 83.7005 299.234 83.375 299.078 82.9844L285.797 42.4375C285.615 41.9167 285.354 41.6562 285.016 41.6562C284.677 41.6562 284.404 41.9167 284.195 42.4375L269.273 88.0234C269.039 88.6745 268.583 89 267.906 89H256.852C256.409 89 256.096 88.8698 255.914 88.6094C255.81 88.4792 255.758 88.3229 255.758 88.1406C255.758 87.9844 255.797 87.8151 255.875 87.6328ZM300.016 45.25V34.1953C300.016 33.388 300.419 32.9844 301.227 32.9844H340.25C341.057 32.9844 341.461 33.388 341.461 34.1953V45.25C341.461 46.0312 341.057 46.4219 340.25 46.4219H319.625C318.818 46.4219 318.414 46.8255 318.414 47.6328V83.1406C318.414 83.9479 318.818 84.3516 319.625 84.3516H321.852C322.659 84.3516 323.062 83.9479 323.062 83.1406V50.0547C323.062 49.2474 323.466 48.8438 324.273 48.8438H326.422C327.229 48.8438 327.633 49.2474 327.633 50.0547V87.7891C327.633 88.5964 327.229 89 326.422 89H315.055C314.273 89 313.883 88.5964 313.883 87.7891V42.9844C313.883 42.2031 314.273 41.8125 315.055 41.8125H335.641C336.422 41.8125 336.812 41.4089 336.812 40.6016V38.8438C336.812 38.0365 336.422 37.6328 335.641 37.6328H305.875C305.068 37.6328 304.664 38.0365 304.664 38.8438V40.6016C304.664 41.4089 305.068 41.8125 305.875 41.8125H310.25C311.057 41.8125 311.461 42.2031 311.461 42.9844V45.25C311.461 46.0312 311.057 46.4219 310.25 46.4219H301.227C300.419 46.4219 300.016 46.0312 300.016 45.25ZM345.797 45.25V34.1953C345.797 33.388 346.201 32.9844 347.008 32.9844H386.031C386.839 32.9844 387.242 33.388 387.242 34.1953V45.25C387.242 46.0312 386.839 46.4219 386.031 46.4219H365.406C364.599 46.4219 364.195 46.8255 364.195 47.6328V83.1406C364.195 83.9479 364.599 84.3516 365.406 84.3516H367.633C368.44 84.3516 368.844 83.9479 368.844 83.1406V50.0547C368.844 49.2474 369.247 48.8438 370.055 48.8438H372.203C373.01 48.8438 373.414 49.2474 373.414 50.0547V87.7891C373.414 88.5964 373.01 89 372.203 89H360.836C360.055 89 359.664 88.5964 359.664 87.7891V42.9844C359.664 42.2031 360.055 41.8125 360.836 41.8125H381.422C382.203 41.8125 382.594 41.4089 382.594 40.6016V38.8438C382.594 38.0365 382.203 37.6328 381.422 37.6328H351.656C350.849 37.6328 350.445 38.0365 350.445 38.8438V40.6016C350.445 41.4089 350.849 41.8125 351.656 41.8125H356.031C356.839 41.8125 357.242 42.2031 357.242 42.9844V45.25C357.242 46.0312 356.839 46.4219 356.031 46.4219H347.008C346.201 46.4219 345.797 46.0312 345.797 45.25ZM391.266 87.7891V34.1953C391.266 33.388 391.669 32.9844 392.477 32.9844H404C404.807 32.9844 405.211 33.388 405.211 34.1953V83.2578C405.211 84.0391 405.602 84.4297 406.383 84.4297H421.266C422.073 84.4297 422.477 84.0391 422.477 83.2578V81.8125C422.477 81.0052 422.073 80.6016 421.266 80.6016H408.805C407.997 80.6016 407.594 80.1979 407.594 79.3906V77.0859C407.594 76.2786 407.997 75.875 408.805 75.875H425.836C426.643 75.875 427.047 76.2786 427.047 77.0859V87.7891C427.047 88.5964 426.643 89 425.836 89H401.852C401.044 89 400.641 88.5964 400.641 87.7891V38.7656C400.641 37.9583 400.237 37.5547 399.43 37.5547H397.047C396.24 37.5547 395.836 37.9583 395.836 38.7656V87.7891C395.836 88.5964 395.432 89 394.625 89H392.477C391.669 89 391.266 88.5964 391.266 87.7891ZM431.344 87.7891V70.5234C431.344 69.7161 431.747 69.3125 432.555 69.3125H434.703C435.51 69.3125 435.914 69.7161 435.914 70.5234V83.2578C435.914 84.0391 436.305 84.4297 437.086 84.4297H457.359C458.141 84.4297 458.531 84.0391 458.531 83.2578V81.2266C458.531 80.4453 458.141 80.0547 457.359 80.0547H441.266C440.458 80.0547 440.055 79.651 440.055 78.8438V68.1016C440.055 67.3203 439.651 66.9297 438.844 66.9297H432.555C431.747 66.9297 431.344 66.526 431.344 65.7188V34.1953C431.344 33.388 431.747 32.9844 432.555 32.9844H461.891C462.698 32.9844 463.102 33.388 463.102 34.1953V45.4844C463.102 46.2917 462.698 46.6953 461.891 46.6953H445.836C445.029 46.6953 444.625 47.0859 444.625 47.8672V52.5938C444.625 53.401 445.029 53.8047 445.836 53.8047H457.359C458.141 53.8047 458.531 54.2083 458.531 55.0156V65.7188C458.531 66.526 458.141 66.9297 457.359 66.9297H448.219C447.411 66.9297 447.008 66.526 447.008 65.7188V63.5703C447.008 62.763 447.411 62.3594 448.219 62.3594H452.789C453.57 62.3594 453.961 61.9557 453.961 61.1484V59.5469C453.961 58.7656 453.57 58.375 452.789 58.375H441.266C440.458 58.375 440.055 57.9714 440.055 57.1641V43.0625C440.055 42.2812 440.458 41.8906 441.266 41.8906H457.359C458.141 41.8906 458.531 41.487 458.531 40.6797V38.7656C458.531 37.9583 458.141 37.5547 457.359 37.5547H437.086C436.305 37.5547 435.914 37.9583 435.914 38.7656V61.1484C435.914 61.9557 436.305 62.3594 437.086 62.3594H443.414C444.221 62.3594 444.625 62.763 444.625 63.5703V74.0391C444.625 74.8464 445.029 75.25 445.836 75.25H461.891C462.698 75.25 463.102 75.6406 463.102 76.4219V87.7891C463.102 88.5964 462.698 89 461.891 89H432.555C431.747 89 431.344 88.5964 431.344 87.7891Z" fill="#FFA2FE"/>
</g>
<g filter="url(#filter1_d_1000_261)">
<rect x="12.5" y="8.5" width="477" height="105" rx="12.5" stroke="#FFA1FE" stroke-width="5" shape-rendering="crispEdges"/>
</g>
<defs>
<filter id="filter0_d_1000_261" x="30.4062" y="26.9844" width="442.695" height="76.0156" filterUnits="userSpaceOnUse" color-interpolation-filters="sRGB">
<feFlood flood-opacity="0" result="BackgroundImageFix"/>
<feColorMatrix in="SourceAlpha" type="matrix" values="0 0 0 0 0 0 0 0 0 0 0 0 0 0 0 0 0 0 127 0" result="hardAlpha"/>
<feOffset dy="4"/>
<feGaussianBlur stdDeviation="5"/>
<feComposite in2="hardAlpha" operator="out"/>
<feColorMatrix type="matrix" values="0 0 0 0 0.996078 0 0 0 0 0.00392157 0 0 0 0 0.980392 0 0 0 1 0"/>
<feBlend mode="normal" in2="BackgroundImageFix" result="effect1_dropShadow_1000_261"/>
<feBlend mode="normal" in="SourceGraphic" in2="effect1_dropShadow_1000_261" result="shape"/>
</filter>
<filter id="filter1_d_1000_261" x="0" y="0" width="502" height="130" filterUnits="userSpaceOnUse" color-interpolation-filters="sRGB">
<feFlood flood-opacity="0" result="BackgroundImageFix"/>
<feColorMatrix in="SourceAlpha" type="matrix" values="0 0 0 0 0 0 0 0 0 0 0 0 0 0 0 0 0 0 127 0" result="hardAlpha"/>
<feOffset dy="4"/>
<feGaussianBlur stdDeviation="5"/>
<feComposite in2="hardAlpha" operator="out"/>
<feColorMatrix type="matrix" values="0 0 0 0 0.996078 0 0 0 0 0.00392157 0 0 0 0 0.980392 0 0 0 1 0"/>
<feBlend mode="normal" in2="BackgroundImageFix" result="effect1_dropShadow_1000_261"/>
<feBlend mode="normal" in="SourceGraphic" in2="effect1_dropShadow_1000_261" result="shape"/>
</filter>
</defs>
</svg>
